HIERARCHY
ROOT Hips
{
	OFFSET 0.000000 0.000000 0.000000
	CHANNELS 6 Xposition Yposition Zposition Xrotation Yrotation Zrotation
	JOINT Spine
	{
		OFFSET 0.000000 0.053497 0.080245
		CHANNELS 3 Xrotation Yrotation Zrotation
		JOINT Spine1
		{
			OFFSET 0.000000 0.018579 0.105368
			CHANNELS 3 Xrotation Yrotation Zrotation
			JOINT Spine2
			{
				OFFSET 0.000000 0.009325 0.106586
				CHANNELS 3 Xrotation Yrotation Zrotation
				JOINT Spine3
				{
					OFFSET 0.000000 0.000000 0.106993
					CHANNELS 3 Xrotation Yrotation Zrotation
					JOINT Neck
					{
						OFFSET 0.000000 -0.040122 0.280858
						CHANNELS 3 Xrotation Yrotation Zrotation
						JOINT Head
						{
							OFFSET 0.000000 -0.025546 0.144881
							CHANNELS 3 Xrotation Yrotation Zrotation
							End Site
							{
								OFFSET 0.000000 0.000000 0.000000
							}
						}
					}
					JOINT RightShoulder
					{
						OFFSET -0.032541 -0.054234 0.175720
						CHANNELS 3 Xrotation Yrotation Zrotation
						JOINT RightArm
						{
							OFFSET -0.161619 0.000000 0.000000
							CHANNELS 3 Xrotation Yrotation Zrotation
							JOINT RightForeArm
							{
								OFFSET -0.257104 0.000000 0.000000
								CHANNELS 3 Xrotation Yrotation Zrotation
								JOINT RightHand
								{
									OFFSET -0.273485 0.000000 0.000000
									CHANNELS 3 Xrotation Yrotation Zrotation
									JOINT RightHandEnd
									{
										OFFSET -0.070844 0.000000 0.000000
										CHANNELS 3 Xrotation Yrotation Zrotation
										End Site
										{
											OFFSET 0.000000 0.000000 0.000000
										}
									}
									JOINT RightHandThumb1
									{
										OFFSET -0.028338 -0.047230 -0.018892
										CHANNELS 3 Xrotation Yrotation Zrotation
										End Site
										{
											OFFSET 0.000000 0.000000 0.000000
										}
									}
								}
							}
						}
					}
					JOINT LeftShoulder
					{
						OFFSET 0.032541 -0.054234 0.175720
						CHANNELS 3 Xrotation Yrotation Zrotation
						JOINT LeftArm
						{
							OFFSET 0.161619 0.000000 0.000000
							CHANNELS 3 Xrotation Yrotation Zrotation
							JOINT LeftForeArm
							{
								OFFSET 0.257104 0.000000 0.000000
								CHANNELS 3 Xrotation Yrotation Zrotation
								JOINT LeftHand
								{
									OFFSET 0.273485 0.000000 0.000000
									CHANNELS 3 Xrotation Yrotation Zrotation
									JOINT LeftHandEnd
									{
										OFFSET 0.070844 0.000000 0.000000
										CHANNELS 3 Xrotation Yrotation Zrotation
										End Site
										{
											OFFSET 0.000000 0.000000 0.000000
										}
									}
									JOINT LeftHandThumb1
									{
										OFFSET 0.028338 -0.047230 -0.018892
										CHANNELS 3 Xrotation Yrotation Zrotation
										End Site
										{
											OFFSET 0.000000 0.000000 0.000000
										}
									}
								}
							}
						}
					}
				}
			}
		}
	}
	JOINT RightUpLeg
	{
		OFFSET -0.096537 0.000000 -0.028202
		CHANNELS 3 Xrotation Yrotation Zrotation
		JOINT RightLeg
		{
			OFFSET 0.000000 0.000000 -0.431842
			CHANNELS 3 Xrotation Yrotation Zrotation
			JOINT RightFoot
			{
				OFFSET 0.000000 0.000000 -0.456398
				CHANNELS 3 Xrotation Yrotation Zrotation
				JOINT RightToeBase
				{
					OFFSET 0.000000 -0.128905 -0.046918
					CHANNELS 3 Xrotation Yrotation Zrotation
					End Site
					{
						OFFSET 0.000000 0.000000 0.000000
					}
				}
			}
		}
	}
	JOINT LeftUpLeg
	{
		OFFSET 0.096537 0.000000 -0.028202
		CHANNELS 3 Xrotation Yrotation Zrotation
		JOINT LeftLeg
		{
			OFFSET 0.000000 0.000000 -0.431842
			CHANNELS 3 Xrotation Yrotation Zrotation
			JOINT LeftFoot
			{
				OFFSET 0.000000 0.000000 -0.456398
				CHANNELS 3 Xrotation Yrotation Zrotation
				JOINT LeftToeBase
				{
					OFFSET 0.000000 -0.128905 -0.046918
					CHANNELS 3 Xrotation Yrotation Zrotation
					End Site
					{
						OFFSET 0.000000 0.000000 0.000000
					}
				}
			}
		}
	}
}
MOTION
Frames: 8
Frame Time: 0.033333
0.163944 1.423132 0.934466 1.328200 5.243900 -5.803900 4.164100 -6.384000 2.164300 1.606300 -1.437600 -0.084800 4.747200 -2.720200 -0.148900 2.562100 -1.098200 1.194000 12.428100 -0.007900 0.736600 -6.341600 2.573800 1.696200 6.710200 -3.968000 2.647800 29.870900 -46.720300 23.062600 0.000000 0.000000 29.000700 -8.896900 5.673500 -1.375300 0.000000 0.000000 0.000000 0.000000 0.000000 0.000000 6.700300 7.921200 -4.540900 31.208400 47.591500 -25.698600 0.000000 0.000000 -18.653000 -17.604800 -9.360000 6.692500 0.000000 0.000000 0.000000 0.000000 0.000000 0.000000 -2.073400 -9.451300 -7.442100 19.025600 0.000000 0.000000 -18.033400 2.767800 -9.339700 1.124000 0.000000 0.000000 -31.075700 -1.730300 -5.753300 32.391600 0.000000 0.000000 -13.236200 14.044900 19.278500 -4.834600 0.000000 0.000000 
0.162453 1.409243 0.930824 1.122500 5.335500 -6.457900 4.556700 -6.271900 2.333000 1.815300 -1.303600 -0.046100 4.841200 -2.419500 0.105900 2.617500 -1.074800 1.171100 12.800400 0.050400 0.873900 -6.612900 2.520000 1.807500 6.680300 -3.643300 2.592200 28.091800 -46.144400 22.092400 0.000000 0.000000 28.773500 -9.554200 6.219600 -1.789900 0.000000 0.000000 0.000000 0.000000 0.000000 0.000000 6.588300 7.227400 -3.896700 27.329300 48.142100 -21.386200 0.000000 0.000000 -18.356100 -18.967700 -10.748900 6.641300 0.000000 0.000000 0.000000 0.000000 0.000000 0.000000 -1.504400 -9.775400 -5.464100 20.185600 0.000000 0.000000 -19.158200 3.499000 -10.562200 1.033300 0.000000 0.000000 -31.263000 -2.909500 -4.238500 27.094700 0.000000 0.000000 -8.468100 14.079000 16.507600 -5.990200 0.000000 0.000000 
0.160708 1.393302 0.926874 0.869500 5.469700 -7.082000 4.934000 -6.211400 2.502400 2.023400 -1.120900 -0.006500 4.941200 -2.034700 0.345600 2.681500 -1.007000 1.079800 13.136500 0.085800 1.068500 -6.821400 2.408900 1.950300 6.589500 -3.294300 2.739500 25.932700 -46.354400 20.831000 0.000000 0.000000 28.653900 -10.151100 6.766800 -2.089300 0.000000 0.000000 0.000000 0.000000 0.000000 0.000000 6.472300 6.465100 -3.245000 23.050000 48.792400 -16.779700 0.000000 0.000000 -18.439600 -19.973500 -11.289500 6.460500 0.000000 0.000000 0.000000 0.000000 0.000000 0.000000 -0.663400 -10.116500 -3.703700 21.210800 0.000000 0.000000 -20.277900 4.252800 -11.621700 0.870500 0.000000 0.000000 -31.225800 -4.217900 -2.625600 22.263600 0.000000 0.000000 -4.862000 14.492100 13.054000 -6.762600 0.000000 0.000000 
0.159164 1.375380 0.922960 0.659000 5.634600 -7.499300 5.227800 -6.200500 2.616100 2.182600 -0.963400 0.021800 5.053800 -1.608600 0.552300 2.750100 -0.883000 0.916200 13.413600 0.184400 1.277300 -6.925500 2.298100 2.064500 6.531800 -2.962600 3.027200 23.636800 -47.142400 19.361200 0.000000 0.000000 28.788900 -11.017400 7.411600 -2.211300 0.000000 0.000000 0.000000 0.000000 0.000000 0.000000 6.349600 5.795000 -2.668800 19.118700 49.185300 -12.522500 0.000000 0.000000 -18.675500 -20.582600 -11.118000 6.116600 0.000000 0.000000 0.000000 0.000000 0.000000 0.000000 0.502200 -10.329500 -2.719100 21.772600 0.000000 0.000000 -21.265100 4.688400 -12.085800 0.387200 0.000000 0.000000 -31.106600 -5.413100 -1.249300 18.115100 0.000000 0.000000 -1.946500 15.228200 8.979900 -7.703200 0.000000 0.000000 
0.158194 1.355601 0.919460 0.582600 5.739500 -7.677700 5.391600 -6.156400 2.645400 2.264800 -0.846000 0.043300 5.161900 -1.208000 0.785700 2.806800 -0.734000 0.735200 13.649600 0.402200 1.425400 -6.930400 2.223200 2.103500 6.539000 -2.762300 3.261700 21.812500 -48.019700 18.131600 0.000000 0.000000 29.115500 -11.909500 8.012800 -2.045300 0.000000 0.000000 0.000000 0.000000 0.000000 0.000000 6.181200 5.415600 -2.168800 16.511900 49.089200 -9.594900 0.000000 0.000000 -18.783200 -20.751300 -10.770100 5.448500 0.000000 0.000000 0.000000 0.000000 0.000000 0.000000 1.960400 -10.305200 -2.399300 21.718500 0.000000 0.000000 -22.111700 4.577700 -11.920000 -0.064400 0.000000 0.000000 -31.088100 -6.282100 -0.354200 14.954700 0.000000 0.000000 0.466200 15.922600 5.653400 -8.308900 0.000000 0.000000 
0.157660 1.333777 0.916490 0.549900 5.754200 -7.589100 5.492200 -6.042300 2.649000 2.322200 -0.746500 0.065900 5.234300 -0.833600 1.024100 2.835000 -0.600000 0.593800 13.847300 0.641700 1.451300 -6.891000 2.117100 2.055400 6.599600 -2.715600 3.329400 20.771300 -48.873400 17.375600 0.000000 0.000000 29.523200 -12.268400 8.300600 -1.589200 0.000000 0.000000 0.000000 0.000000 0.000000 0.000000 5.961400 5.232400 -1.758100 15.292800 48.746800 -8.190200 0.000000 0.000000 -18.739800 -20.346500 -10.789800 4.678300 0.000000 0.000000 0.000000 0.000000 0.000000 0.000000 3.751200 -10.108600 -2.339200 21.171300 0.000000 0.000000 -22.786800 4.035800 -11.587900 -0.318300 0.000000 0.000000 -31.231300 -6.754400 0.193100 13.623300 0.000000 0.000000 1.250700 16.565300 4.471000 -8.088100 0.000000 0.000000 
0.157467 1.309888 0.913689 0.522100 5.725100 -7.184300 5.553900 -5.905600 2.668600 2.378700 -0.641100 0.097000 5.265900 -0.482100 1.206200 2.839900 -0.493100 0.468900 13.968200 0.779000 1.373300 -6.827800 1.881800 1.924400 6.781500 -2.726700 3.306200 20.353500 -49.865500 17.003200 0.000000 0.000000 29.972400 -12.147500 8.247500 -1.058900 0.000000 0.000000 0.000000 0.000000 0.000000 0.000000 5.712900 5.087700 -1.456800 14.707000 48.468400 -7.653500 0.000000 0.000000 -18.703700 -19.621000 -11.257800 4.191700 0.000000 0.000000 0.000000 0.000000 0.000000 0.000000 5.704500 -9.854800 -2.517200 20.490300 0.000000 0.000000 -23.110600 3.322000 -11.394900 -1.240300 0.000000 0.000000 -31.518800 -6.857800 0.856600 14.614100 0.000000 0.000000 0.229500 16.785600 5.199700 -7.899900 0.000000 0.000000 
0.158105 1.284597 0.910694 0.717200 5.628000 -6.567600 5.456200 -5.704000 2.641500 2.334600 -0.594300 0.126800 5.305900 -0.162700 1.391400 2.845600 -0.395200 0.356300 13.965700 0.789000 1.239700 -6.693200 1.531200 1.716000 7.101400 -2.749200 3.310200 20.418300 -50.937700 16.987900 0.000000 0.000000 30.364300 -12.034300 7.992400 -0.601800 0.000000 0.000000 0.000000 0.000000 0.000000 0.000000 5.404200 5.125200 -1.292900 14.203000 48.222900 -7.343900 0.000000 0.000000 -18.776000 -19.195100 -11.963100 3.914100 0.000000 0.000000 0.000000 0.000000 0.000000 0.000000 7.238800 -9.482600 -3.138200 20.242700 0.000000 0.000000 -23.045200 2.307200 -11.074600 -3.335000 0.000000 0.000000 -31.953600 -6.614800 1.644600 17.012400 0.000000 0.000000 -0.512700 15.923500 6.722600 -8.240300 0.000000 0.000000 
